<svg width="30" height="30" viewBox="0 0 47 47" fill="none" xmlns="http://www.w3.org/2000/svg">
<path d="M1.41416 1.41421C2.1952 0.633165 3.46153 0.633165 4.24258 1.41421L45.2548 42.4264C46.0358 43.2075 46.0358 44.4738 45.2548 45.2548C44.4737 46.0359 43.2074 46.0359 42.4263 45.2548L1.41416 4.24264C0.633108 3.46159 0.633107 2.19526 1.41416 1.41421Z" fill="white"/>
<path d="M45.2547 1.41416C46.0358 2.1952 46.0358 3.46153 45.2547 4.24258L4.24254 45.2548C3.46149 46.0358 2.19516 46.0358 1.41411 45.2548C0.633064 44.4737 0.633064 43.2074 1.41411 42.4263L42.4263 1.41416C43.2074 0.633108 44.4737 0.633107 45.2547 1.41416Z" fill="white"/>
</svg>
