<svg width="16" height="11" viewBox="0 0 16 11" fill="none" xmlns="http://www.w3.org/2000/svg">
<path fill-rule="evenodd" clip-rule="evenodd" d="M13.8249 2.58779L8.21083 6.9262C8.10809 7.00523 7.98402 7.04475 7.85995 7.04475C7.73532 7.04475 7.61125 7.00523 7.50852 6.9262L1.89448 2.58779C1.65252 2.40102 1.61378 2.05997 1.80746 1.82665C2.00171 1.59387 2.35539 1.55651 2.5968 1.74274L7.85995 5.80993L13.1226 1.74274C13.3645 1.55597 13.7176 1.59333 13.9119 1.82665C14.1056 2.05997 14.0668 2.40102 13.8249 2.58779ZM14.5968 0.00012207H1.12311C0.502761 0.00012207 0.000305176 0.484633 0.000305176 1.08283V9.20313C0.000305176 9.80078 0.502761 10.2858 1.12311 10.2858H14.5968C15.2166 10.2858 15.7196 9.80078 15.7196 9.20313V1.08283C15.7196 0.484633 15.2166 0.00012207 14.5968 0.00012207Z" fill="#e9483b"/>
<mask id="mask0_0_92" style="mask-type:alpha" maskUnits="userSpaceOnUse" x="0" y="0" width="16" height="11">
<path fill-rule="evenodd" clip-rule="evenodd" d="M13.8249 2.58779L8.21083 6.9262C8.10809 7.00523 7.98402 7.04475 7.85995 7.04475C7.73532 7.04475 7.61125 7.00523 7.50852 6.9262L1.89448 2.58779C1.65252 2.40102 1.61378 2.05997 1.80746 1.82665C2.00171 1.59387 2.35539 1.55651 2.5968 1.74274L7.85995 5.80993L13.1226 1.74274C13.3645 1.55597 13.7176 1.59333 13.9119 1.82665C14.1056 2.05997 14.0668 2.40102 13.8249 2.58779ZM14.5968 0.00012207H1.12311C0.502761 0.00012207 0.000305176 0.484633 0.000305176 1.08283V9.20313C0.000305176 9.80078 0.502761 10.2858 1.12311 10.2858H14.5968C15.2166 10.2858 15.7196 9.80078 15.7196 9.20313V1.08283C15.7196 0.484633 15.2166 0.00012207 14.5968 0.00012207Z" fill="white"/>
</mask>
<g mask="url(#mask0_0_92)">
</g>
</svg>
