<svg width="34" height="35" viewBox="0 0 34 35" fill="none" xmlns="http://www.w3.org/2000/svg">
<path d="M17 14.5605C18.577 14.5605 19.8555 15.8766 19.8555 17.5C19.8555 19.1234 18.577 20.4395 17 20.4395C15.423 20.4395 14.1445 19.1234 14.1445 17.5C14.1445 15.8766 15.423 14.5605 17 14.5605Z" fill="#E9483B"/>
<path d="M31.6047 14.2249C32.24 14.8683 32.6745 15.692 32.8528 16.5908C33.0311 17.4896 32.945 18.4227 32.6056 19.271C32.2661 20.1192 31.6888 20.844 30.9472 21.3527C30.2057 21.8615 29.3336 22.1312 28.4425 22.1272C28.2512 22.1272 28.0307 22.1177 27.783 22.0979C27.9657 22.2592 28.1304 22.4137 28.2698 22.5565C28.8966 23.2043 29.3235 24.0284 29.4966 24.9251C29.6697 25.8219 29.5814 26.7514 29.2428 27.5966C28.9042 28.4419 28.3305 29.1652 27.5936 29.6757C26.8568 30.1862 25.9897 30.4611 25.1016 30.4657H25.085C24.4941 30.4653 23.9092 30.3443 23.3641 30.1096C22.819 29.8749 22.3246 29.5313 21.9094 29.0985C21.7693 28.9543 21.6192 28.7848 21.4632 28.5975C21.4824 28.8538 21.4924 29.0808 21.4924 29.2763C21.4924 30.5035 21.0188 31.6805 20.1758 32.5482C19.3328 33.416 18.1895 33.9035 16.9973 33.9035C15.8052 33.9035 14.6619 33.416 13.8189 32.5482C12.9759 31.6805 12.5023 30.5035 12.5023 29.2763C12.5023 29.0801 12.5123 28.8531 12.5315 28.5975C12.3748 28.7848 12.2247 28.9543 12.0853 29.0985C11.6701 29.5313 11.1756 29.8749 10.6306 30.1096C10.0855 30.3443 9.50057 30.4653 8.90973 30.4657H8.89844C8.01165 30.4584 7.14665 30.1821 6.41163 29.6714C5.67661 29.1606 5.10423 28.4381 4.76608 27.5941C4.42794 26.7502 4.33905 25.8224 4.51053 24.9267C4.68202 24.031 5.10626 23.2073 5.7302 22.5586C5.86965 22.4157 6.03434 22.2612 6.21762 22.0992C5.96926 22.119 5.74879 22.1293 5.55754 22.1293C4.36538 22.1293 3.22205 21.6418 2.37907 20.774C1.53608 19.9062 1.0625 18.7293 1.0625 17.5021C1.0625 16.2748 1.53608 15.0979 2.37907 14.2301C3.22205 13.3623 4.36538 12.8748 5.55754 12.8748C5.74746 12.8748 5.96793 12.8851 6.21695 12.9049C6.035 12.7442 5.87031 12.5897 5.7302 12.4455C5.10023 11.7999 4.67082 10.9761 4.49648 10.0788C4.32213 9.18148 4.4107 8.25107 4.75096 7.40567C5.09121 6.56026 5.6678 5.83799 6.40754 5.33053C7.14727 4.82307 8.0168 4.5533 8.90574 4.55547H8.92234C9.50952 4.55453 10.0911 4.67267 10.6339 4.90315C11.1768 5.13363 11.6702 5.47193 12.0859 5.89873C12.2247 6.04229 12.3748 6.21182 12.5315 6.39981C12.5129 6.14483 12.503 5.91787 12.503 5.721C12.503 4.49378 12.9766 3.31682 13.8195 2.44904C14.6625 1.58126 15.8058 1.09375 16.998 1.09375C18.1902 1.09375 19.3335 1.58126 20.1765 2.44904C21.0195 3.31682 21.493 4.49378 21.493 5.721C21.493 5.91719 21.4831 6.14414 21.4638 6.40049C21.6205 6.2125 21.7706 6.04229 21.9101 5.89873C22.3259 5.47132 22.8196 5.1325 23.3628 4.90165C23.9059 4.67081 24.488 4.55248 25.0757 4.55342H25.0923C25.9817 4.5496 26.8521 4.81825 27.5927 5.32517C28.3334 5.8321 28.9108 6.55439 29.2515 7.40014C29.5922 8.24589 29.6808 9.17685 29.506 10.0746C29.3311 10.9723 28.9008 11.7962 28.2698 12.4414C28.1297 12.5856 27.965 12.7401 27.783 12.9008C28.0321 12.881 28.2525 12.8707 28.4425 12.8707C29.0302 12.8712 29.612 12.9911 30.1547 13.2234C30.6973 13.4558 31.1901 13.7961 31.6047 14.2249V14.2249ZM17 11.6895C15.8836 11.6895 14.7923 12.0302 13.8641 12.6687C12.9358 13.3072 12.2124 14.2147 11.7851 15.2764C11.3579 16.3381 11.2461 17.5064 11.4639 18.6336C11.6817 19.7607 12.2193 20.7961 13.0087 21.6087C13.7981 22.4213 14.8039 22.9747 15.8988 23.1989C16.9937 23.4231 18.1287 23.308 19.1601 22.8682C20.1915 22.4285 21.073 21.6837 21.6933 20.7282C22.3135 19.7726 22.6445 18.6492 22.6445 17.5C22.6428 15.9595 22.0475 14.4826 20.9893 13.3933C19.9312 12.304 18.4965 11.6913 17 11.6895Z" fill="#E9483B"/>
</svg>
