<svg width="52" height="51" viewBox="0 0 52 51" fill="none" xmlns="http://www.w3.org/2000/svg">
<path d="M26.2076 4.59496C33.0054 4.59496 33.8034 4.62532 36.4902 4.74678C38.975 4.85811 40.3184 5.27307 41.2174 5.62731C42.4093 6.09288 43.2577 6.63941 44.1466 7.53007C45.0355 8.42072 45.591 9.27089 46.0455 10.4652C46.389 11.3659 46.8132 12.712 46.9243 15.2018C47.0455 17.894 47.0758 18.6936 47.0758 25.5051C47.0758 32.3165 47.0455 33.1161 46.9243 35.8083C46.8132 38.2981 46.3991 39.6442 46.0455 40.5449C45.5809 41.7392 45.0355 42.5894 44.1466 43.4801C43.2577 44.3707 42.4093 44.9274 41.2174 45.3828C40.3184 45.7269 38.975 46.152 36.4902 46.2633C33.8034 46.3848 33.0054 46.4152 26.2076 46.4152C19.4097 46.4152 18.6118 46.3848 15.925 46.2633C13.4402 46.152 12.0968 45.737 11.1978 45.3828C10.0059 44.9172 9.15743 44.3707 8.26856 43.4801C7.37969 42.5894 6.82415 41.7392 6.36961 40.5449C6.02619 39.6442 5.60195 38.2981 5.49084 35.8083C5.36963 33.1161 5.33933 32.3165 5.33933 25.5051C5.33933 18.6936 5.36963 17.894 5.49084 15.2018C5.60195 12.712 6.01609 11.3659 6.36961 10.4652C6.83425 9.27089 7.37969 8.42072 8.26856 7.53007C9.15743 6.63941 10.0059 6.08275 11.1978 5.62731C12.0968 5.28319 13.4402 4.85811 15.925 4.74678C18.6118 4.6152 19.4198 4.59496 26.2076 4.59496ZM26.2076 0C19.2986 0 18.43 0.0303632 15.7128 0.151816C13.0058 0.273269 11.1574 0.708474 9.54126 1.33598C7.86453 1.98373 6.45042 2.86426 5.03631 4.28121C3.6222 5.69815 2.75353 7.12522 2.09698 8.7952C1.47073 10.4146 1.03639 12.2667 0.915184 14.9893C0.793974 17.7017 0.763672 18.5721 0.763672 25.4949C0.763672 32.4177 0.793974 33.2882 0.915184 36.0107C1.03639 38.7232 1.47073 40.5753 2.09698 42.2048C2.74343 43.8849 3.6222 45.3018 5.03631 46.7188C6.45042 48.1357 7.87463 49.0062 9.54126 49.664C11.1574 50.2915 13.0058 50.7267 15.723 50.8482C18.4401 50.9696 19.2986 51 26.2177 51C33.1367 51 33.9953 50.9696 36.7124 50.8482C39.4194 50.7267 41.2679 50.2915 42.8941 49.664C44.5708 49.0163 45.9849 48.1357 47.399 46.7188C48.8132 45.3018 49.6818 43.8748 50.3384 42.2048C50.9646 40.5854 51.399 38.7333 51.5202 36.0107C51.6414 33.2882 51.6717 32.4279 51.6717 25.4949C51.6717 18.562 51.6414 17.7017 51.5202 14.9792C51.399 12.2667 50.9646 10.4146 50.3384 8.78508C49.6919 7.10498 48.8132 5.68803 47.399 4.27109C45.9849 2.85414 44.5607 1.98373 42.8941 1.32586C41.278 0.698353 39.4295 0.263147 36.7124 0.141695C33.9852 0.0303632 33.1165 0 26.2076 0Z" fill="white"/>
<path d="M26.2076 12.4083C18.9957 12.4083 13.1372 18.2684 13.1372 25.505C13.1372 32.7415 18.9856 38.6016 26.2076 38.6016C33.4297 38.6016 39.278 32.7415 39.278 25.505C39.278 18.2684 33.4297 12.4083 26.2076 12.4083ZM26.2076 33.9965C21.5209 33.9965 17.723 30.191 17.723 25.4948C17.723 20.7987 21.5209 16.9932 26.2076 16.9932C30.8944 16.9932 34.6923 20.7987 34.6923 25.4948C34.6923 30.191 30.8944 33.9965 26.2076 33.9965Z" fill="white"/>
<path d="M39.7931 14.9388C41.4778 14.9388 42.8436 13.5703 42.8436 11.8822C42.8436 10.1942 41.4778 8.82568 39.7931 8.82568C38.1084 8.82568 36.7427 10.1942 36.7427 11.8822C36.7427 13.5703 38.1084 14.9388 39.7931 14.9388Z" fill="white"/>
</svg>
