<svg width="23" height="26" viewBox="0 0 23 26" fill="none" xmlns="http://www.w3.org/2000/svg">
<mask id="path-1-inside-1_6_41" fill="white">
<path fill-rule="evenodd" clip-rule="evenodd" d="M0 3.48302C0 0.798898 2.91165 -0.873464 5.23013 0.478984L20.9068 9.62374C23.2074 10.9657 23.2074 14.2898 20.9068 15.6318L5.23013 24.7766C2.91164 26.129 0 24.4566 0 21.7725V3.48302ZM19.1545 12.6278L3.47778 3.48302V21.7725L19.1545 12.6278Z"/>
</mask>
<path fill-rule="evenodd" clip-rule="evenodd" d="M0 3.48302C0 0.798898 2.91165 -0.873464 5.23013 0.478984L20.9068 9.62374C23.2074 10.9657 23.2074 14.2898 20.9068 15.6318L5.23013 24.7766C2.91164 26.129 0 24.4566 0 21.7725V3.48302ZM19.1545 12.6278L3.47778 3.48302V21.7725L19.1545 12.6278Z" fill="currentColor"/>
<path d="M5.23013 0.478984L14.2998 -15.069H14.2998L5.23013 0.478984ZM20.9068 9.62374L11.8372 25.1718H11.8372L20.9068 9.62374ZM20.9068 15.6318L29.9765 31.1798L29.9765 31.1798L20.9068 15.6318ZM5.23013 24.7766L14.2998 40.3246L14.2998 40.3246L5.23013 24.7766ZM3.47778 3.48302L12.5475 -12.065C6.98025 -15.3125 0.101566 -15.3356 -5.48732 -12.1255C-11.0762 -8.91545 -14.5222 -2.96216 -14.5222 3.48302H3.47778ZM19.1545 12.6278L28.2242 28.1758C33.7541 24.95 37.1545 19.0298 37.1545 12.6278C37.1545 6.22576 33.7541 0.305535 28.2242 -2.92025L19.1545 12.6278ZM3.47778 21.7725H-14.5222C-14.5222 28.2177 -11.0762 34.171 -5.48732 37.3811C0.101564 40.5912 6.98025 40.5681 12.5475 37.3205L3.47778 21.7725ZM14.2998 -15.069C-0.0184924 -23.4214 -18 -13.0933 -18 3.48302H18C18 14.6911 5.84178 21.6744 -3.83955 16.027L14.2998 -15.069ZM29.9765 -5.92428L14.2998 -15.069L-3.83955 16.027L11.8372 25.1718L29.9765 -5.92428ZM29.9765 31.1798C44.1841 22.8921 44.1843 2.36356 29.9765 -5.92428L11.8372 25.1718C2.23058 19.5679 2.23071 5.68755 11.8372 0.0837836L29.9765 31.1798ZM14.2998 40.3246L29.9765 31.1798L11.8372 0.0837793L-3.83955 9.22853L14.2998 40.3246ZM-18 21.7725C-18 38.3488 -0.0185288 48.6769 14.2998 40.3246L-3.83955 9.22853C5.84181 3.58107 18 10.5644 18 21.7725H-18ZM-18 3.48302V21.7725H18V3.48302H-18ZM-5.5919 19.031L10.0848 28.1758L28.2242 -2.92025L12.5475 -12.065L-5.5919 19.031ZM21.4778 21.7725V3.48302H-14.5222V21.7725H21.4778ZM10.0848 -2.92025L-5.5919 6.2245L12.5475 37.3205L28.2242 28.1758L10.0848 -2.92025Z" fill="currentColor" mask="url(#path-1-inside-1_6_41)"/>
</svg>
