<svg width="28" height="25" viewBox="0 0 28 25" fill="none" xmlns="http://www.w3.org/2000/svg">
<path fill-rule="evenodd" clip-rule="evenodd" d="M14.4204 0.509309C15.0995 -0.16977 16.2005 -0.16977 16.8796 0.509309L27.3129 10.9426C27.639 11.2687 27.8222 11.711 27.8222 12.1722C27.8222 12.6334 27.639 13.0757 27.3129 13.4018L16.8796 23.8351C16.2005 24.5142 15.0995 24.5142 14.4204 23.8351C13.7413 23.1561 13.7413 22.0551 14.4204 21.376L21.8853 13.9111L1.73889 13.9111C0.778527 13.9111 0 13.1326 0 12.1722C0 11.2119 0.778527 10.4333 1.73889 10.4333L21.8853 10.4333L14.4204 2.96847C13.7413 2.28939 13.7413 1.18839 14.4204 0.509309Z" fill="#999999"/>
</svg>
